<?xml version="1.0" encoding="UTF-8"?>
<!-- Created with Inkscape (http://www.inkscape.org/) -->
<svg id="svg9066" width="512" height="512" version="1.1" viewBox="0 0 135.47 135.47" xmlns="http://www.w3.org/2000/svg" xmlns:cc="http://creativecommons.org/ns#" xmlns:dc="http://purl.org/dc/elements/1.1/" xmlns:rdf="http://www.w3.org/1999/02/22-rdf-syntax-ns#">
 <metadata id="metadata9063">
  <rdf:RDF>
   <cc:Work rdf:about="">
    <dc:format>image/svg+xml</dc:format>
    <dc:type rdf:resource="http://purl.org/dc/dcmitype/StillImage"/>
    <dc:title/>
   </cc:Work>
  </rdf:RDF>
 </metadata>
 <g id="layer1" transform="translate(0 -161.53)">
  <g id="g9120" transform="matrix(.26458 0 0 .26458 -333.62 91.203)">
   <g id="layer3" transform="matrix(0 -.38744 .38744 0 42.502 333.65)">
    <path id="path3018" d="m-1109.2 3147.1c-17.832 1.0511-31.905 18.221-31.905 39.332v1242.6c0 21.793 15.006 39.333 33.651 39.333h40.741v-1321.3h-40.741c-0.5826 0-1.1709-0.029-1.7462 0z" fill="#ff0302"/>
    <path id="rect3006" d="m-993.89 3147.1v1321.3h43.546c18.645 0 33.651-17.539 33.651-39.333v-1242.6c0-21.792-15.006-39.333-33.651-39.333z" fill="#120ffe"/>
    <rect id="rect3010" x="-1066.7" y="3147.1" width="72.805" height="1321.3" rx="0" ry="0" fill="#01d318"/>
    <path id="path3813" d="m-511.27 3415.2c-8.8675 0-17.622 0.2912-26.346 0.8706 172.08 13.174 308.2 180.97 308.2 386.09 0 205.12-136.11 372.97-308.2 386.14 8.7238 0.5503 17.479 0.8706 26.346 0.8706 220.84 0 399.88-173.3 399.88-387.02 0-213.72-179.05-386.96-399.88-386.96z"/>
    <path id="path3042" d="m-595.51 3147.1c343 4.5594 619.7 297.73 619.7 658.71 0 360.99-276.7 654.15-619.7 658.71 423.88-3.702 766.15-297.19 766.15-658.71s-342.27-655.01-766.15-658.71z"/>
    <g id="flowRoot9149" transform="matrix(0 2.581 -2.581 0 138.95 3144.8)" aria-label="BWF">
     <path id="path21" d="m106.44 322.22q7.7018 0 11.68-3.3854 3.9779-3.3854 3.9779-9.987 0-6.5169-3.9779-9.9023-3.9779-3.47-11.68-3.47h-18.027v26.745zm1.1003 55.267q9.8177 0 14.727-4.1471 4.9935-4.1471 4.9935-12.526 0-8.2096-4.9088-12.272-4.9089-4.1471-14.811-4.1471h-19.128v33.092zm30.299-45.449q10.495 3.0469 16.25 11.257 5.7552 8.2096 5.7552 20.143 0 18.281-12.357 27.253-12.357 8.9714-37.578 8.9714h-54.082v-126.36h48.919q26.322 0 38.086 7.9557 11.849 7.9557 11.849 25.475 0 9.2253-4.3164 15.742-4.3164 6.4323-12.526 9.5638z"/>
     <path id="path23" d="m167.63 273.3h31.23l21.836 91.829 21.667-91.829h31.4l21.667 91.829 21.836-91.829h30.977l-29.792 126.36h-37.578l-22.936-96.061-22.682 96.061h-37.578z"/>
     <path id="path25" d="m369.65 273.3h87.936v24.629h-55.352v23.529h52.051v24.629h-52.051v53.574h-32.585z"/>
    </g>
   </g>
  </g>
 </g>
</svg>
