<?xml version="1.0" encoding="UTF-8" standalone="no"?>
<!-- Created with Inkscape (http://www.inkscape.org/) -->
<svg
   xmlns:svg="http://www.w3.org/2000/svg"
   xmlns="http://www.w3.org/2000/svg"
   xmlns:xlink="http://www.w3.org/1999/xlink"
   version="1.0"
   width="607.28717"
   height="158.09579"
   id="svg2060">
  <defs
     id="defs2062" />
  <g
     transform="translate(-853.0447,-112.2752)"
     id="layer1">
    <g
       transform="matrix(1.685654,0,0,1.685654,853.0447,112.2718)"
       id="switch6">
      <g
         id="g10">
        <g
           id="Layer_1">
          <g
             id="g13">
            <circle
               cx="9.1239996"
               cy="46.903999"
               r="9.1239996"
               style="fill:#ff6309"
               id="circle15" />
            <circle
               cx="74.547997"
               cy="84.667"
               r="9.1239996"
               style="fill:#ffb515"
               id="circle17" />
            <path
               d="M 52.739,24.327 C 64.1,24.327 73.526,32.763 75.087,43.7 L 90.719,43.7 C 90.009,35.106 86.446,27.096 80.489,20.779 C 76.674,22.722 71.983,22.759 67.998,20.459 C 64.01,18.156 61.696,14.072 61.474,9.792 C 58.643,9.132 55.718,8.79 52.739,8.79 C 47.035,8.79 41.523,10.035 36.51,12.396 L 44.336,25.951 C 46.935,24.905 49.771,24.327 52.739,24.327 z "
               style="fill:#ff6309"
               id="path19" />
            <path
               d="M 75.088,50.098 C 73.531,61.039 64.103,69.48 52.739,69.48 C 49.769,69.48 46.932,68.902 44.333,67.854 L 36.506,81.41 C 41.518,83.772 47.032,85.018 52.738,85.018 C 55.719,85.018 58.648,84.674 61.48,84.014 C 61.698,79.729 64.013,75.638 68.004,73.334 C 71.99,71.032 76.683,71.069 80.499,73.016 C 86.451,66.698 90.01,58.689 90.718,50.098 L 75.088,50.098 z "
               style="fill:#c90016"
               id="path21" />
            <path
               d="M 30.163,46.904 C 30.163,39.711 33.544,33.294 38.799,29.157 L 30.975,15.604 C 29.14,16.886 27.404,18.337 25.787,19.953 C 21.259,24.481 18.012,29.948 16.225,35.915 C 19.825,38.247 22.209,42.295 22.209,46.904 C 22.209,51.512 19.825,55.561 16.225,57.892 C 18.012,63.859 21.259,69.326 25.787,73.854 C 27.403,75.47 29.137,76.919 30.971,78.202 L 38.796,64.648 C 33.542,60.511 30.163,54.094 30.163,46.904 z "
               style="fill:#ffb515"
               id="path23" />
            <circle
               cx="74.540001"
               cy="9.1260004"
               r="9.1239996"
               style="fill:#c90016"
               id="circle25" />
          </g>
          <g
             id="g27">
            <path
               d="M 325.517,30.812 C 325.517,28.807 325.97,27.316 326.878,26.337 C 327.782,25.335 328.983,24.835 330.478,24.833 C 331.998,24.833 333.222,25.335 334.154,26.337 C 335.086,27.34 335.55,28.831 335.552,30.812 L 335.552,43.839 C 335.552,47.538 335.804,50.115 336.314,51.566 C 336.824,52.991 337.634,54.105 338.752,54.903 C 339.889,55.701 341.283,56.098 342.93,56.098 C 344.578,56.098 345.971,55.712 347.11,54.937 C 348.272,54.139 349.131,52.979 349.69,51.457 C 350.102,50.32 350.307,47.891 350.309,44.165 L 350.309,30.765 C 350.309,28.776 350.76,27.296 351.659,26.326 C 352.559,25.332 353.751,24.835 355.235,24.833 C 356.741,24.833 357.956,25.332 358.881,26.326 C 359.803,27.321 360.264,28.801 360.268,30.765 L 360.268,41.554 C 360.268,48.445 359.721,53.161 358.631,55.701 C 357.297,58.796 355.334,61.177 352.742,62.846 C 350.15,64.489 346.855,65.311 342.857,65.312 C 338.519,65.312 335.005,64.344 332.316,62.411 C 329.652,60.477 327.773,57.78 326.683,54.323 C 325.908,51.928 325.521,47.576 325.521,41.265 L 325.517,30.812 L 325.517,30.812 z "
               id="path29" />
            <path
               d="M 248.464,59.332 C 248.464,61.337 248.917,62.828 249.825,63.809 C 250.731,64.811 251.93,65.311 253.427,65.312 C 254.947,65.312 256.171,64.811 257.103,63.809 C 258.033,62.806 258.498,61.315 258.498,59.332 L 258.5,46.305 C 258.5,42.606 258.754,40.031 259.262,38.58 C 259.772,37.153 260.582,36.041 261.7,35.244 C 262.837,34.446 264.231,34.047 265.878,34.047 C 267.525,34.047 268.919,34.434 270.058,35.208 C 271.222,36.006 272.081,37.167 272.64,38.69 C 273.05,39.826 273.255,42.255 273.257,45.981 L 273.257,59.38 C 273.257,61.37 273.708,62.849 274.609,63.821 C 275.507,64.815 276.699,65.311 278.181,65.312 C 279.689,65.312 280.906,64.815 281.829,63.821 C 282.751,62.825 283.212,61.346 283.214,59.38 L 283.214,48.59 C 283.214,41.698 282.669,36.984 281.579,34.444 C 280.247,31.349 278.284,28.967 275.692,27.298 C 273.098,25.655 269.803,24.833 265.805,24.832 C 261.467,24.832 257.955,25.8 255.264,27.734 C 252.6,29.667 250.721,32.363 249.631,35.821 C 248.856,38.215 248.469,42.568 248.469,48.879 L 248.464,59.332 L 248.464,59.332 z "
               id="path31" />
            <path
               d="M 203.041,30.812 C 203.041,28.807 203.494,27.316 204.4,26.337 C 205.306,25.335 206.505,24.835 208.004,24.833 C 209.522,24.833 210.746,25.335 211.678,26.337 C 212.61,27.34 213.074,28.831 213.074,30.812 L 213.074,43.839 C 213.074,47.538 213.33,50.115 213.84,51.566 C 214.348,52.991 215.158,54.105 216.274,54.903 C 217.413,55.701 218.805,56.098 220.454,56.098 C 222.1,56.098 223.495,55.712 224.634,54.937 C 225.796,54.139 226.657,52.979 227.214,51.457 C 227.624,50.32 227.831,47.891 227.833,44.165 L 227.833,30.765 C 227.833,28.776 228.284,27.296 229.183,26.326 C 230.081,25.332 231.275,24.835 232.759,24.833 C 234.263,24.833 235.48,25.332 236.405,26.326 C 237.327,27.321 237.79,28.801 237.79,30.765 L 237.79,41.554 C 237.79,48.445 237.245,53.161 236.153,55.701 C 234.821,58.796 232.858,61.177 230.266,62.846 C 227.672,64.489 224.377,65.311 220.379,65.312 C 216.043,65.312 212.531,64.344 209.84,62.411 C 207.176,60.477 205.299,57.78 204.207,54.323 C 203.432,51.928 203.045,47.576 203.045,41.265 L 203.041,30.812 L 203.041,30.812 z "
               id="path33" />
            <path
               d="M 113.152,30.812 C 113.152,28.807 113.605,27.316 114.512,26.337 C 115.418,25.335 116.618,24.835 118.114,24.833 C 119.632,24.833 120.858,25.335 121.79,26.337 C 122.712,27.332 123.178,28.81 123.186,30.765 L 123.186,43.839 C 123.186,47.538 123.44,50.115 123.949,51.566 C 124.458,52.991 125.268,54.105 126.384,54.903 C 127.522,55.701 128.916,56.098 130.564,56.098 C 132.21,56.098 133.605,55.712 134.744,54.937 C 135.906,54.139 136.766,52.979 137.324,51.457 C 137.736,50.32 137.941,47.891 137.943,44.165 L 137.943,30.765 C 137.943,28.776 138.394,27.296 139.294,26.326 C 140.193,25.332 141.385,24.835 142.868,24.833 C 144.375,24.833 145.591,25.332 146.515,26.326 C 147.438,27.321 147.9,28.801 147.901,30.765 L 147.901,41.554 C 147.901,48.445 147.356,53.161 146.265,55.701 C 144.932,58.796 142.969,61.177 140.377,62.846 C 137.783,64.489 134.489,65.311 130.491,65.312 C 126.154,65.312 122.641,64.344 119.951,62.411 C 117.285,60.477 115.408,57.78 114.318,54.323 C 113.542,51.928 113.154,47.576 113.154,41.265 L 113.152,30.812 L 113.152,30.812 z "
               id="path35" />
            <path
               d="M 191.457,34.431 C 191.324,34.123 191.186,33.822 191.041,33.529 C 191.27,34.002 191.484,34.498 191.686,35.013 C 191.611,34.808 191.535,34.614 191.457,34.431 L 191.457,34.431 z M 158.405,45.191 L 158.423,44.599 C 158.411,44.544 158.405,44.478 158.405,44.399 L 158.405,17.669 C 158.405,16.031 158.442,14.753 158.516,13.834 C 158.615,12.892 158.864,12.085 159.263,11.415 C 159.66,10.721 160.232,10.162 160.979,9.739 C 161.724,9.292 162.557,9.069 163.479,9.069 C 164.771,9.069 165.94,9.553 166.985,10.521 C 167.681,11.167 168.116,11.961 168.29,12.903 C 168.488,13.822 168.588,15.137 168.589,16.85 L 168.589,27.107 C 170.64,26.369 172.806,24.819 177.029,24.819 C 181.027,24.821 182.975,25.642 185.568,27.286 C 186.94,28.169 188.135,29.252 189.157,30.536 C 189.87,31.435 190.499,32.432 191.04,33.528 C 191.185,33.821 191.323,34.122 191.456,34.43 C 191.534,34.613 191.61,34.806 191.685,35.012 C 192.781,37.848 193.425,41.31 193.425,45.05 C 193.425,48.72 192.802,52.126 191.741,54.932 C 191.651,55.202 191.555,55.452 191.456,55.686 C 191.171,56.346 190.856,56.976 190.513,57.572 C 190.234,58.062 189.933,58.529 189.613,58.974 C 188.5,60.525 187.152,61.809 185.569,62.83 C 182.976,64.473 179.681,65.295 175.683,65.296 C 171.346,65.296 167.833,64.328 165.143,62.395 C 162.477,60.461 160.6,57.764 159.51,54.307 C 158.908,52.448 158.539,49.409 158.405,45.191 L 158.405,45.191 z M 180.321,55.911 C 181.276,55.257 182.045,54.379 182.629,53.279 C 182.714,53.182 182.785,53.077 182.84,52.963 C 183.883,50.784 184.503,48.065 184.503,45.119 C 184.503,42.273 183.926,39.642 182.947,37.502 C 182.336,36.087 181.461,34.988 180.321,34.207 C 179.068,33.355 177.536,32.93 175.724,32.93 C 173.912,32.93 172.378,33.369 171.126,34.247 C 169.9,35.125 169.007,36.349 168.448,37.918 C 168.021,39.133 167.758,41.067 167.656,43.719 C 167.614,47.825 167.893,50.62 168.448,52.201 C 169.007,53.772 169.9,54.994 171.126,55.871 C 172.378,56.751 173.912,57.188 175.724,57.188 C 177.536,57.188 179.068,56.764 180.321,55.911 L 180.321,55.911 z "
               id="path37" />
            <path
               d="M 295.228,24.134 L 296.349,24.134 L 296.349,17.916 C 296.349,16.248 296.384,14.946 296.458,14.01 C 296.558,13.05 296.808,12.229 297.204,11.545 C 297.602,10.837 298.173,10.269 298.921,9.839 C 299.667,9.383 300.497,9.156 301.419,9.156 C 302.712,9.156 303.88,9.649 304.925,10.635 C 305.622,11.292 306.056,12.101 306.232,13.062 C 306.429,13.998 306.529,15.336 306.529,17.08 L 306.529,24.133 L 310.259,24.133 C 311.698,24.133 312.794,24.487 313.54,25.195 C 314.311,25.877 314.696,26.762 314.696,27.849 C 314.696,29.24 314.149,30.212 313.055,30.768 C 311.985,31.325 310.444,31.602 308.432,31.602 L 306.528,31.602 L 306.528,50.636 C 306.528,52.254 306.577,53.507 306.678,54.391 C 306.801,55.249 307.1,55.957 307.574,56.514 C 308.068,57.045 308.865,57.309 309.959,57.309 C 310.557,57.309 311.365,57.208 312.385,57.005 C 313.403,56.778 314.199,56.664 314.772,56.664 C 315.592,56.664 316.325,57.005 316.971,57.688 C 317.643,58.347 317.979,59.168 317.979,60.152 C 317.979,61.821 317.084,63.097 315.293,63.982 C 313.502,64.865 310.928,65.308 307.574,65.309 C 304.388,65.309 301.976,64.765 300.336,63.679 C 298.696,62.593 297.615,61.089 297.092,59.167 C 296.594,57.245 296.348,54.68 296.348,51.47 L 296.348,31.604 L 295.004,31.604 C 293.537,31.604 292.416,31.251 291.647,30.542 C 290.874,29.834 290.493,28.938 290.493,27.851 C 290.493,26.764 290.888,25.88 291.686,25.197 C 292.505,24.489 293.685,24.135 295.228,24.134 L 295.228,24.134 z "
               id="path39" />
          </g>
        </g>
      </g>
    </g>
  </g>
</svg>
